<?xml version="1.0" standalone="no"?>
<!DOCTYPE svg PUBLIC "-//W3C//DTD SVG 20010904//EN" "http://www.w3.org/TR/2001/REC-SVG-20010904/DTD/svg10.dtd">
<svg version="1.0" xmlns="http://www.w3.org/2000/svg" width="280.000000pt" height="280.000000pt" viewBox="0 0 280.000000 280.000000" preserveAspectRatio="xMidYMid meet">
  <g transform="translate(0.000000,280.000000) scale(0.100000,-0.100000)" fill="#000000" stroke="none">
    <path d="M1230 2748 c-47 -27 -103 -60 -125 -73 -22 -12 -85 -48 -140 -80 -55
-32 -174 -101 -265 -153 -91 -52 -217 -125 -280 -162 -63 -37 -136 -79 -161
-93 -26 -14 -63 -36 -83 -49 l-36 -23 3 -724 2 -724 30 -18 c17 -10 48 -28 70
-40 22 -12 123 -70 225 -129 467 -271 552 -320 556 -320 3 0 25 -13 49 -30 24
-16 46 -30 49 -30 3 0 43 -23 90 -50 l85 -50 95 0 94 0 259 148 c142 82 293
170 336 195 43 26 81 47 83 47 2 0 21 11 42 24 20 13 128 76 240 141 l202 117
0 722 0 723 -207 120 c-115 67 -224 130 -243 140 -19 11 -78 45 -130 75 -52
30 -147 85 -210 122 -63 36 -122 70 -130 75 -8 6 -71 41 -139 80 l-124 71 -76
-1 c-73 -1 -80 -3 -161 -51z m448 -827 c129 -97 250 -187 270 -201 l37 -26 3
-147 c1 -81 -1 -147 -4 -147 -4 0 -25 14 -48 31 -95 70 -475 356 -509 383
l-37 28 0 145 0 145 28 -18 c15 -9 132 -97 260 -193z m-553 -177 c154 -115
316 -236 361 -269 45 -33 176 -132 293 -219 l211 -159 0 -144 c0 -78 -4 -143
-8 -143 -7 0 -131 91 -392 288 -195 147 -480 361 -496 372 -12 8 -81 59 -153
113 l-131 99 0 150 c0 143 1 150 18 136 9 -8 143 -109 297 -224z m-166 -464
c56 -41 177 -132 269 -201 l167 -126 3 -146 c1 -81 -1 -147 -5 -147 -5 0 -48
31 -97 68 -49 37 -119 90 -156 117 -38 28 -127 94 -199 148 l-131 99 0 150 0
150 24 -19 c13 -10 70 -52 125 -93z" />
  </g>
</svg>